<svg 
 xmlns="http://www.w3.org/2000/svg"
 xmlns:xlink="http://www.w3.org/1999/xlink"
 width="49px" height="32px">
<defs>
<filter id="Filter_0">
    <feFlood flood-color="rgb(243, 156, 18)" flood-opacity="1" result="floodOut" />
    <feComposite operator="atop" in="floodOut" in2="SourceGraphic" result="compOut" />
    <feBlend mode="normal" in="compOut" in2="SourceGraphic" />
</filter>

</defs>
<g filter="url(#Filter_0)">
<path fill-rule="evenodd"  fill="rgb(0, 0, 0)"
 d="M38.846,31.998 L38.846,16.630 L48.996,16.630 L48.996,31.998 L38.846,31.998 ZM44.039,31.334 C44.329,31.334 44.566,31.097 44.566,30.808 C44.566,30.516 44.329,30.283 44.039,30.283 C43.747,30.283 43.513,30.516 43.513,30.808 C43.513,31.097 43.747,31.334 44.039,31.334 ZM44.127,17.266 C44.003,17.266 43.903,17.365 43.903,17.487 C43.903,17.609 44.003,17.709 44.127,17.709 C44.248,17.709 44.347,17.609 44.347,17.487 C44.347,17.365 44.248,17.266 44.127,17.266 ZM45.441,18.004 L42.809,18.004 L42.809,18.216 L45.441,18.216 L45.441,18.004 ZM47.529,18.970 L40.316,18.971 L40.316,29.538 C41.493,29.548 45.153,29.538 47.529,29.525 L47.529,18.970 ZM42.099,2.788 L9.523,2.788 L9.523,8.709 L6.732,8.709 L6.732,0.002 L44.889,0.002 L44.889,15.791 L42.099,15.791 L42.099,2.788 ZM14.574,31.412 L0.003,31.412 L0.003,9.584 L14.574,9.584 L14.574,31.412 ZM7.596,30.317 C7.984,30.317 8.297,30.003 8.297,29.616 C8.297,29.228 7.984,28.916 7.596,28.916 C7.209,28.916 6.894,29.230 6.894,29.616 C6.894,30.003 7.209,30.317 7.596,30.317 ZM2.110,11.688 L2.110,27.792 L12.468,27.792 L12.469,11.688 L2.110,11.688 ZM37.856,24.414 L28.997,24.414 L28.997,25.988 L36.963,25.988 L36.963,27.285 L15.474,27.285 L15.474,25.988 L22.306,25.988 L22.306,24.414 L15.474,24.414 L15.474,20.819 L37.856,20.819 L37.856,24.414 Z"/>
</g>
</svg>