<?xml version="1.0" encoding="utf-8"?>
<!-- Generator: Adobe Illustrator 21.0.0, SVG Export Plug-In . SVG Version: 6.00 Build 0)  -->
<svg version="1.1" id="Layer_1" xmlns="http://www.w3.org/2000/svg" xmlns:xlink="http://www.w3.org/1999/xlink" x="0px" y="0px"
	 viewBox="0 0 50 50" style="enable-background:new 0 0 50 50;" xml:space="preserve">
<style type="text/css">
	.st0{opacity:0.7;}
	.st1{fill:#EF970B;}
	.st2{fill:#CDCDCD;}
	.st3{fill:#CCCCCC;}
</style>
<g class="st0">
	<rect x="0.5" y="0.5" width="49" height="49"/>
	<path class="st1" d="M49,1v48H1V1H49 M50,0H0v50h50V0L50,0z"/>
</g>
<g>
	<g>
		<path class="st2" d="M9.3,10.9c0-0.5,0.2-0.9,0.5-1.2s0.7-0.5,1.2-0.5h8.7c0.2,0,0.4,0.1,0.6,0.2s0.2,0.4,0.2,0.6v2.8
			c0,0.2-0.1,0.4-0.2,0.6s-0.4,0.2-0.6,0.2h-5.9v5.9c0,0.2-0.1,0.4-0.2,0.6s-0.4,0.2-0.6,0.2h-2.8c-0.2,0-0.4-0.1-0.6-0.2
			s-0.2-0.4-0.2-0.6V10.9z M20.5,37.1c0-0.2-0.1-0.4-0.2-0.6s-0.4-0.2-0.6-0.2h-5.9v-5.9c0-0.2-0.1-0.4-0.2-0.6s-0.4-0.2-0.6-0.2
			h-2.8c-0.2,0-0.4,0.1-0.6,0.2s-0.2,0.4-0.2,0.6v8.7c0,0.5,0.2,0.9,0.5,1.2s0.7,0.5,1.2,0.5h8.7c0.2,0,0.4-0.1,0.6-0.2
			s0.2-0.4,0.2-0.6V37.1z M29.5,12.9c0,0.2,0.1,0.4,0.2,0.6s0.4,0.2,0.6,0.2h5.9v5.9c0,0.2,0.1,0.4,0.2,0.6s0.4,0.2,0.6,0.2h2.8
			c0.2,0,0.4-0.1,0.6-0.2s0.2-0.4,0.2-0.6v-8.7c0-0.5-0.2-0.9-0.5-1.2s-0.7-0.5-1.2-0.5h-8.7c-0.2,0-0.4,0.1-0.6,0.2
			s-0.2,0.4-0.2,0.6V12.9z M37.1,29.5c-0.2,0-0.4,0.1-0.6,0.2s-0.2,0.4-0.2,0.6v5.9h-5.9c-0.2,0-0.4,0.1-0.6,0.2s-0.2,0.4-0.2,0.6
			v2.8c0,0.2,0.1,0.4,0.2,0.6s0.4,0.2,0.6,0.2h8.7c0.5,0,0.9-0.2,1.2-0.5s0.5-0.7,0.5-1.2v-8.7c0-0.2-0.1-0.4-0.2-0.6
			s-0.4-0.2-0.6-0.2H37.1z"/>
	</g>
	<g>
		<path class="st3" d="M31.9,32.8c-0.1,0.1-0.3,0.2-0.5,0.2s-0.4-0.1-0.5-0.2l-3.1-3.1c-0.1-0.1-0.2-0.3-0.2-0.5v-0.5
			c-1.2,0.9-2.5,1.4-4,1.4c-1.2,0-2.3-0.3-3.3-0.9s-1.8-1.4-2.4-2.4S17,24.7,17,23.5s0.3-2.3,0.9-3.3s1.4-1.8,2.4-2.4
			s2.1-0.9,3.3-0.9s2.3,0.3,3.3,0.9s1.8,1.4,2.4,2.4s0.9,2.1,0.9,3.3c0,1.5-0.5,2.8-1.4,4h0.5c0.2,0,0.4,0.1,0.5,0.2l3.1,3.1
			c0.1,0.1,0.2,0.3,0.2,0.5s-0.1,0.4-0.2,0.5L31.9,32.8z M27.2,21.4c-0.4-0.6-0.9-1.2-1.5-1.5s-1.4-0.6-2.1-0.6s-1.5,0.2-2.1,0.6
			s-1.2,0.9-1.5,1.5s-0.6,1.4-0.6,2.1s0.2,1.5,0.6,2.1c0.4,0.6,0.9,1.2,1.5,1.5s1.4,0.6,2.1,0.6s1.5-0.2,2.1-0.6s1.2-0.9,1.5-1.5
			c0.4-0.6,0.6-1.4,0.6-2.1S27.6,22,27.2,21.4z M26.5,24c0,0.1,0,0.2-0.1,0.3s-0.2,0.1-0.3,0.1h-1.8v1.8c0,0.1,0,0.2-0.1,0.3
			s-0.2,0.1-0.3,0.1h-1c-0.1,0-0.2,0-0.3-0.1s-0.1-0.2-0.1-0.3v-1.8h-1.8c-0.1,0-0.2,0-0.3-0.1s-0.1-0.2-0.1-0.3v-1
			c0-0.1,0-0.2,0.1-0.3s0.2-0.1,0.3-0.1h1.8v-1.8c0-0.1,0-0.2,0.1-0.3s0.2-0.1,0.3-0.1h1c0.1,0,0.2,0,0.3,0.1s0.1,0.2,0.1,0.3v1.8
			h1.8c0.1,0,0.2,0,0.3,0.1s0.1,0.2,0.1,0.3V24z"/>
	</g>
</g>
</svg>
