<svg 
 xmlns="http://www.w3.org/2000/svg"
 xmlns:xlink="http://www.w3.org/1999/xlink"
 width="167px" height="42px">
<path fill-rule="evenodd"  stroke-width="1px" stroke="rgb(243, 156, 18)" fill-opacity="0" fill="rgb(249, 249, 249)"
 d="M82.812,32.500 C84.366,32.500 85.625,33.759 85.625,35.312 C85.625,36.866 84.366,38.125 82.812,38.125 C81.259,38.125 80.000,36.866 80.000,35.312 C80.000,33.759 81.259,32.500 82.812,32.500 Z"/>
<path fill-rule="evenodd"  fill="rgb(243, 156, 18)"
 d="M92.000,34.500 L129.969,34.500 L129.969,35.500 L92.000,35.500 L92.000,34.500 Z"/>
<path fill-rule="evenodd"  fill="rgb(243, 156, 18)"
 d="M36.000,34.500 L73.937,34.500 L73.937,35.500 L36.000,35.500 L36.000,34.500 Z"/>
<path fill-rule="evenodd"  stroke-width="2px" stroke="rgb(243, 156, 18)" fill-opacity="0" fill="rgb(249, 249, 249)"
 d="M82.750,19.500 C84.821,19.500 86.500,21.179 86.500,23.250 C86.500,25.321 84.821,27.000 82.750,27.000 C80.679,27.000 79.000,25.321 79.000,23.250 C79.000,21.179 80.679,19.500 82.750,19.500 Z"/>
<path fill-rule="evenodd"  fill="rgb(243, 156, 18)"
 d="M94.000,22.500 L144.625,22.500 L144.625,24.500 L94.000,24.500 L94.000,22.500 Z"/>
<path fill-rule="evenodd"  fill="rgb(243, 156, 18)"
 d="M21.000,22.500 L71.625,22.500 L71.625,24.500 L21.000,24.500 L21.000,22.500 Z"/>
<path fill-rule="evenodd"  stroke-width="3px" stroke="rgb(243, 156, 18)" fill-opacity="0" fill="rgb(249, 249, 249)"
 d="M83.000,5.500 C85.761,5.500 88.000,7.738 88.000,10.500 C88.000,13.261 85.761,15.500 83.000,15.500 C80.239,15.500 78.000,13.261 78.000,10.500 C78.000,7.738 80.239,5.500 83.000,5.500 Z"/>
<path fill-rule="evenodd"  fill="rgb(243, 156, 18)"
 d="M99.000,9.500 L166.500,9.500 L166.500,12.500 L99.000,12.500 L99.000,9.500 Z"/>
<path fill-rule="evenodd"  fill="rgb(243, 156, 18)"
 d="M-0.000,9.500 L67.500,9.500 L67.500,12.500 L-0.000,12.500 L-0.000,9.500 Z"/>
</svg>