<svg 
 xmlns="http://www.w3.org/2000/svg"
 xmlns:xlink="http://www.w3.org/1999/xlink"
 width="1530px" height="724px">
<defs>
<filter filterUnits="userSpaceOnUse" id="Filter_0" x="117px" y="102px" width="975px" height="501px"  >
    <feOffset in="SourceAlpha" dx="0" dy="3" />
    <feGaussianBlur result="blurOut" stdDeviation="3.162" />
    <feFlood flood-color="rgb(109, 109, 109)" result="floodOut" />
    <feComposite operator="atop" in="floodOut" in2="blurOut" />
    <feComponentTransfer><feFuncA type="linear" slope="0.2"/></feComponentTransfer>
    <feMerge>
    <feMergeNode/>
    <feMergeNode in="SourceGraphic"/>
  </feMerge>
</filter>
<linearGradient id="PSgrad_0" x1="70.711%" x2="0%" y1="0%" y2="70.711%">
  <stop offset="0%" stop-color="rgb(195,120,0)" stop-opacity="1" />
  <stop offset="56%" stop-color="rgb(217,136,6)" stop-opacity="1" />
  <stop offset="100%" stop-color="rgb(239,151,11)" stop-opacity="1" />
</linearGradient>

</defs>
<g filter="url(#Filter_0)">
<path fill-rule="evenodd"  fill="rgb(190, 117, 0)"
 d="M1084.997,110.006 L766.419,591.285 L766.886,591.991 L129.004,591.991 L447.449,110.779 L446.937,110.006 L1084.997,110.006 Z"/>
</g>
<path fill="url(#PSgrad_0)"
 d="M1084.997,110.006 L766.419,591.285 L766.886,591.991 L129.004,591.991 L447.449,110.779 L446.937,110.006 L1084.997,110.006 Z"/>
<path fill-rule="evenodd"  fill="rgb(249, 249, 249)"
 d="M-0.010,0.006 L437.994,723.965 L0.016,724.003 L-0.010,0.006 Z"/>
<path fill-rule="evenodd"  fill="rgb(239, 151, 11)"
 d="M1530.003,631.990 L789.339,631.990 L789.928,631.229 L450.003,110.007 L1194.218,110.007 L1193.568,110.848 L1530.003,631.990 Z"/>
</svg>